<svg version="1.1" id="Layer_1" xmlns="http://www.w3.org/2000/svg" xmlns:xlink="http://www.w3.org/1999/xlink" x="0px" y="0px"
	 viewBox="0 0 122 20" enable-background="new 0 0 122 20" xml:space="preserve" width="122px" height="20px" style="width: 100px;">
     <style>
     .tw-logo {
        fill: #000000;
     }
     </style>
<g>
	<defs>
		<rect id="SVGID_1_" x="0.3" y="0.6" width="121.3" height="18.7"/>
	</defs>
	<clipPath id="SVGID_2_">
		<use xlink:href="#SVGID_1_"  overflow="visible"/>
	</clipPath>
	<g clip-path="url(#SVGID_2_)" class="tw-logo">
		<path  d="M118.3,6.6c0-0.9,0.8-1.7,1.7-1.7c0.9,0,1.7,0.8,1.7,1.7c0,0.9-0.8,1.7-1.7,1.7
			C119,8.3,118.3,7.5,118.3,6.6 M121.2,6.6c0-0.8-0.5-1.3-1.3-1.3c-0.7,0-1.3,0.5-1.3,1.3c0,0.8,0.5,1.3,1.3,1.3
			C120.7,7.9,121.2,7.3,121.2,6.6 M120.8,7.5h-0.4l-0.4-0.8h-0.3v0.8h-0.4V5.7h0.9c0.5,0,0.7,0.1,0.7,0.6c0,0.3-0.2,0.5-0.5,0.5
			L120.8,7.5z M120.1,6.4c0.2,0,0.4,0,0.4-0.3c0-0.3-0.3-0.2-0.4-0.2h-0.4v0.5H120.1z"/>
		<polygon  points="11.2,3.2 7.3,3.2 7.3,15.7 4.3,15.7 4.3,3.2 0.3,3.2 0.3,0.6 11.2,0.6 		"/>
		<path  d="M15.3,6c0.9-0.8,2-1.4,3.2-1.4c1.2,0,2.9,0.7,2.9,3.4v7.7h-2.9V9.2c0-0.9,0.1-2.3-1.2-2.3
			c-0.8,0-1.5,0.6-2,1.2v7.6h-2.9V0.6h2.9V6z"/>
		<path  d="M22.6,10.3c0-2.9,1.6-5.7,4.8-5.7s4.8,2.8,4.8,5.7c0,2.9-1.6,5.7-4.8,5.7C24.2,16,22.6,13.2,22.6,10.3
			 M29.2,10.3c0-1.4-0.3-3.6-1.8-3.6c-1.6,0-1.8,2.2-1.8,3.6c0,1.4,0.3,3.6,1.8,3.6C28.9,13.9,29.2,11.7,29.2,10.3"/>
		<path  d="M39.5,14.6c-0.9,0.8-2,1.4-3.2,1.4c-1.2,0-2.9-0.7-2.9-3.4V4.9h2.9v6.5c0,0.9-0.1,2.3,1.2,2.3
			c0.8,0,1.5-0.6,2-1.2V4.9h2.9v10.9h-2.9V14.6z"/>
		<path  d="M47.1,12.2c-0.3,0-0.8,0.2-0.8,0.7c0,1.4,7.5-1,7.5,3.2c0,1.6-1.1,3.3-5.4,3.3c-3.8,0-5-1.3-5-2.7
			c0-0.8,0.5-1.3,1.2-1.6c-0.5-0.3-0.9-0.8-0.9-1.4c0-1.1,0.6-1.6,1.4-2.2c-0.8-0.8-1.4-1.7-1.4-3c0-2.4,2-3.8,4.4-3.8
			c1,0,1.9,0.3,2.7,0.8c0.6-0.5,1.1-0.9,2-0.9c0.3,0,0.6,0,0.8,0.1v2c-0.3-0.1-0.6-0.2-0.9-0.2c-0.3,0-0.5,0.1-0.8,0.2
			c0.3,0.6,0.6,1.2,0.6,1.8c0,2.4-2,3.8-4.4,3.8L47.1,12.2z M46.2,15.8c-0.3,0.2-0.4,0.3-0.4,0.7c0,1,2,1.1,2.7,1.1
			c0.5,0,3-0.1,3-0.9c0-0.6-0.4-0.5-2.1-0.6L46.2,15.8z M48.2,10.3c1.2,0,1.6-1,1.6-2c0-1-0.5-1.8-1.6-1.8c-1.2,0-1.6,1-1.6,2
			C46.6,9.5,47,10.3,48.2,10.3"/>
		<path  d="M57.8,6c0.9-0.8,2-1.4,3.2-1.4c1.2,0,2.9,0.7,2.9,3.4v7.7H61V9.2c0-0.9,0.1-2.3-1.2-2.3
			c-0.8,0-1.5,0.6-2,1.2v7.6h-2.9V0.6h2.9V6z"/>
		<path  d="M69.1,4.9h2.2v2.4h-2.2v5.5c0,0.5,0.2,1.1,1.1,1.1c0.5,0,0.8-0.2,1.1-0.4v2.2c-0.6,0.2-1.2,0.3-1.8,0.3
			c-1.8,0-3.3-1-3.3-3.4V7.3h-1.3V4.9h1.3V2.2h2.9V4.9z"/>
		<polygon  points="83.3,15.7 81.8,15.7 79.2,3.4 79.2,3.4 76.5,15.7 74.9,15.7 71.7,0.6 73.3,0.6 75.7,12.8 
			75.8,12.8 78.5,0.6 80,0.6 82.6,12.8 82.6,12.8 85.3,0.6 86.8,0.6 		"/>
		<path  d="M86.1,10.4c0-4,1.9-5.7,4.3-5.7c2.4,0,4.3,1.6,4.3,5.7c0,4-1.9,5.7-4.3,5.7C88,16,86.1,14.4,86.1,10.4
			 M93.2,10.4c0-1.8-0.4-4.4-2.8-4.4c-2.3,0-2.8,2.6-2.8,4.4c0,1.8,0.4,4.4,2.8,4.4C92.8,14.8,93.2,12.2,93.2,10.4"/>
		<path  d="M97.4,7.3L97.4,7.3c0.6-1.3,1.4-2.5,3-2.5h0.6v1.4c-2-0.3-3,1.9-3.6,3.4v6.1h-1.5V5h1.5V7.3z"/>
		<polygon  points="103.8,10 107.8,5 109.5,5 106.5,8.7 109.9,15.7 108.3,15.7 105.5,9.9 103.8,12.1 103.8,15.7 
			102.3,15.7 102.3,0.6 103.8,0.6 		"/>
		<path  d="M116.5,7.4C115.9,6.5,115.2,6,114,6c-1,0-1.9,0.5-1.9,1.6c0,2.6,5.7,1.5,5.7,5.1c0,2.1-1.5,3.4-3.5,3.4
			c-1.7,0-3.1-0.8-4-2.3l1.2-0.8c0.6,1.1,1.5,1.7,2.8,1.7c1.1,0,2.1-0.6,2.1-1.8c0-2.7-5.7-1.4-5.7-5.3c0-1.8,1.5-3,3.3-3
			c1.5,0,2.7,0.6,3.6,1.9L116.5,7.4z"/>
	</g>
</g>
</svg>
